# This file uses meters as units for non-parametric coordinates.

mtllib Pared.mtl
g default
v -315.154606 -25.000000 9.573431
v 314.699733 -25.000000 9.573431
v 314.699733 -25.000000 -9.573431
v -315.154606 -25.000000 -9.573431
v -315.154606 -0.000027 9.573431
v 314.699733 -0.000027 9.573431
v 314.699733 -0.000025 -9.573431
v -315.154606 -0.000025 -9.573431
v -315.154606 24.999987 9.573431
v 314.699733 24.999987 9.573431
v 314.699733 24.999989 -9.573431
v -315.154606 24.999989 -9.573431
v -317.988451 24.999987 12.799661
v 317.533506 24.999987 12.799661
v 317.533506 54.040001 12.799661
v -317.988451 54.040001 12.799661
v 317.533506 54.040001 -12.799661
v -317.988451 54.040001 -12.799661
v 317.533506 24.999989 -12.799661
v -317.988451 24.999989 -12.799661
v -317.988451 -54.040001 -12.799661
v 317.533506 -54.040001 -12.799661
v 317.533506 -54.040001 12.799661
v -317.988451 -54.040001 12.799661
v 317.533506 -25.000000 12.799661
v -317.988451 -25.000000 12.799661
v 317.533506 -25.000000 -12.799661
v -317.988451 -25.000000 -12.799661
vt 0.550970 0.630577
vt 0.921278 0.630648
vt 0.962515 0.630656
vt 0.664596 0.049562
vt 0.962551 0.440802
vt 0.664560 0.239417
vt 0.921314 0.440794
vt 0.551006 0.440723
vt 0.664521 0.440745
vt 0.807799 0.440772
vt 0.807763 0.630626
vt 0.664485 0.630599
vt 0.849000 0.630634
vt 0.623248 0.630591
vt 0.807807 0.399535
vt 0.623284 0.440737
vt 0.622614 0.606664
vt 0.807112 0.695790
vt 0.885143 0.606714
vt 0.587113 0.606657
vt 0.849670 0.464707
vt 0.807180 0.340108
vt 0.587141 0.464657
vt 0.665173 0.375581
vt 0.920644 0.606721
vt 0.665098 0.766763
vt 0.807186 0.304608
vt 0.551641 0.464650
vt 0.849036 0.440780
vt 0.807173 0.375608
vt 0.807838 0.239444
vt 0.807830 0.280681
vt 0.920671 0.464720
vt 0.807874 0.049590
vt 0.885170 0.464714
vt 0.664529 0.399508
vt 0.622641 0.464663
vt 0.509769 0.440715
vt 0.664552 0.280654
vt 0.665186 0.304581
vt 0.664446 0.831927
vt 0.665179 0.340081
vt 0.807755 0.671863
vt 0.849643 0.606707
vt 0.807732 0.790717
vt 0.807725 0.831954
vt 0.807098 0.766790
vt 0.807105 0.731290
vt 0.664477 0.671836
vt 0.665111 0.695763
vt 0.664454 0.790690
vt 0.509733 0.630569
vt 0.551613 0.606650
vt 0.665105 0.731263
vn 0.000000 0.000000 1.000000
vn 0.000000 0.000000 1.000000
vn 0.000000 0.000000 1.000000
vn 0.000000 0.000000 1.000000
vn 0.000000 1.000000 0.000000
vn 0.000000 1.000000 0.000000
vn 0.000000 1.000000 0.000000
vn 0.000000 1.000000 0.000000
vn 0.000000 0.000000 -1.000000
vn 0.000000 0.000000 -1.000000
vn 0.000000 0.000000 -1.000000
vn 0.000000 0.000000 -1.000000
vn 0.000000 -1.000000 0.000000
vn 0.000000 -1.000000 0.000000
vn 0.000000 -1.000000 0.000000
vn 0.000000 -1.000000 0.000000
vn 1.000000 0.000000 0.000000
vn 1.000000 0.000000 0.000000
vn 1.000000 0.000000 0.000000
vn 1.000000 0.000000 0.000000
vn -1.000000 0.000000 0.000000
vn -1.000000 0.000000 0.000000
vn -1.000000 0.000000 0.000000
vn -1.000000 0.000000 0.000000
vn 0.000000 0.000000 1.000000
vn 0.000000 0.000000 1.000000
vn 0.000000 0.000000 1.000000
vn 0.000000 0.000000 1.000000
vn 1.000000 0.000000 0.000000
vn 1.000000 0.000000 0.000000
vn 1.000000 0.000000 0.000000
vn 1.000000 0.000000 0.000000
vn 0.000000 0.000000 -1.000000
vn 0.000000 0.000000 -1.000000
vn 0.000000 0.000000 -1.000000
vn 0.000000 0.000000 -1.000000
vn -1.000000 0.000000 0.000000
vn -1.000000 0.000000 0.000000
vn -1.000000 0.000000 0.000000
vn -1.000000 0.000000 0.000000
vn 0.000000 0.000000 1.000000
vn 0.000000 0.000000 1.000000
vn 0.000000 0.000000 1.000000
vn 0.000000 0.000000 1.000000
vn 1.000000 0.000000 0.000000
vn 1.000000 0.000000 0.000000
vn 1.000000 0.000000 0.000000
vn 1.000000 0.000000 0.000000
vn 0.000000 0.000000 -1.000000
vn 0.000000 0.000000 -1.000000
vn 0.000000 0.000000 -1.000000
vn 0.000000 0.000000 -1.000000
vn -1.000000 0.000000 0.000000
vn -1.000000 0.000000 0.000000
vn -1.000000 0.000000 0.000000
vn -1.000000 0.000000 0.000000
vn 0.000000 0.000000 1.000000
vn 0.000000 0.000000 1.000000
vn 1.000000 0.000000 0.000000
vn 1.000000 0.000000 0.000000
vn 0.000000 0.000000 -1.000000
vn 0.000000 0.000000 -1.000000
vn -1.000000 0.000000 0.000000
vn -1.000000 0.000000 0.000000
vn 0.000000 -1.000000 0.000000
vn 0.000000 -1.000000 0.000000
vn 0.000000 -1.000000 0.000000
vn 0.000000 -1.000000 0.000000
vn 0.000000 -1.000000 0.000000
vn 0.000000 -1.000000 0.000000
vn 0.000000 -1.000000 0.000001
vn 0.000000 -1.000000 0.000001
vn 0.000000 1.000000 0.000000
vn 0.000000 1.000000 0.000000
vn 0.000000 1.000000 0.000000
vn 0.000000 1.000000 0.000000
vn 0.000000 1.000000 -0.000000
vn 0.000000 1.000000 -0.000000
vn 0.000000 1.000000 -0.000000
vn 0.000000 1.000000 -0.000000
s off
g pCube5 group1
usemtl texturedFacets4
f 13/51/1 14/45/2 15/46/3 16/41/4
f 16/4/5 15/34/6 17/31/7 18/6/8
f 18/6/9 17/31/10 19/32/11 20/39/12
f 21/9/13 22/10/14 23/11/15 24/12/16
f 14/2/17 19/7/18 17/5/19 15/3/20
f 20/8/21 13/1/22 16/52/23 18/38/24
f 24/12/25 23/11/26 25/43/27 26/49/28
f 23/11/29 22/10/30 27/29/31 25/13/32
f 28/36/33 27/15/34 22/10/35 21/9/36
f 21/9/37 24/12/38 26/14/39 28/16/40
s 1
f 1/50/41 2/18/42 6/48/43 5/54/44
s 2
f 2/44/45 3/21/46 7/35/47 6/19/48
s 3
f 8/42/49 7/22/50 3/30/51 4/24/52
s 4
f 4/37/53 1/17/54 5/20/55 8/23/56
s 1
f 5/54/44 6/48/43 10/47/57 9/26/58
s 2
f 6/19/48 7/35/47 11/33/59 10/25/60
s 3
f 12/40/61 11/27/62 7/22/50 8/42/49
s 4
f 8/23/56 5/20/55 9/53/63 12/28/64
s 5
f 9/26/65 10/47/66 14/45/67 13/51/68
f 11/27/69 12/40/70 20/39/71 19/32/72
f 10/25/66 11/33/69 19/7/72 14/2/67
f 12/28/70 9/53/65 13/1/68 20/8/71
s 6
f 2/18/73 1/50/74 26/49/75 25/43/76
f 3/21/77 2/44/73 25/13/76 27/29/78
f 4/24/79 3/30/77 27/15/78 28/36/80
f 1/17/74 4/37/79 28/16/80 26/14/75
g default
v 304.500239 -31.778338 13.688921
v 357.346624 -31.778338 13.688921
v 357.346624 -31.778338 -13.688921
v 304.500239 -31.778338 -13.688921
v 304.500239 -0.000034 13.688921
v 357.346624 -0.000034 13.688921
v 357.346624 -0.000032 -13.688921
v 304.500239 -0.000032 -13.688921
v 304.500239 31.778321 13.688921
v 357.346624 31.778321 13.688921
v 357.346624 31.778323 -13.688921
v 304.500239 31.778323 -13.688921
v 304.262488 31.778321 18.302063
v 357.584375 31.778321 18.302063
v 357.584375 68.692057 18.302063
v 304.262488 68.692057 18.302063
v 357.584375 68.692057 -18.302063
v 304.262488 68.692057 -18.302063
v 357.584375 31.778323 -18.302063
v 304.262488 31.778323 -18.302063
v 304.262488 -68.692057 -18.302063
v 357.584375 -68.692057 -18.302063
v 357.584375 -68.692057 18.302063
v 304.262488 -68.692057 18.302063
v 357.584375 -31.778338 18.302063
v 304.262488 -31.778338 18.302063
v 357.584375 -31.778338 -18.302063
v 304.262488 -31.778338 -18.302063
vt 0.223197 0.042784
vt 0.406735 0.042784
vt 0.223197 0.226322
vt 0.406735 0.226322
vt 0.223197 0.409860
vt 0.406735 0.409860
vt 0.223197 0.593398
vt 0.406735 0.593398
vt 0.223197 0.776936
vt 0.406735 0.776936
vt 0.590273 0.042784
vt 0.590273 0.226322
vt 0.039659 0.042784
vt 0.039659 0.226322
vt 0.223197 0.088668
vt 0.406735 0.088668
vt 0.406735 0.547513
vt 0.590273 0.088668
vt 0.039659 0.088668
vt 0.223197 0.547513
vt 0.223197 0.134553
vt 0.406735 0.134553
vt 0.406735 0.501629
vt 0.590273 0.134553
vt 0.039659 0.134553
vt 0.223197 0.501629
vt 0.223197 0.180437
vt 0.406735 0.180437
vt 0.406735 0.455744
vt 0.590273 0.180437
vt 0.039659 0.180437
vt 0.223197 0.455744
vt 0.223197 0.180437
vt 0.406735 0.180437
vt 0.406735 0.455744
vt 0.223197 0.455744
vt 0.590273 0.180437
vt 0.039659 0.180437
vt 0.406735 0.088668
vt 0.223197 0.088668
vt 0.590273 0.088668
vt 0.223197 0.547513
vt 0.406735 0.547513
vt 0.039659 0.088668
vn 0.000000 0.000000 1.000000
vn 0.000000 0.000000 1.000000
vn 0.000000 0.000000 1.000000
vn 0.000000 0.000000 1.000000
vn 0.000000 1.000000 0.000000
vn 0.000000 1.000000 0.000000
vn 0.000000 1.000000 0.000000
vn 0.000000 1.000000 0.000000
vn 0.000000 0.000000 -1.000000
vn 0.000000 0.000000 -1.000000
vn 0.000000 0.000000 -1.000000
vn 0.000000 0.000000 -1.000000
vn 0.000000 -1.000000 0.000000
vn 0.000000 -1.000000 0.000000
vn 0.000000 -1.000000 0.000000
vn 0.000000 -1.000000 0.000000
vn 1.000000 0.000000 0.000000
vn 1.000000 0.000000 0.000000
vn 1.000000 0.000000 0.000000
vn 1.000000 0.000000 0.000000
vn -1.000000 0.000000 0.000000
vn -1.000000 0.000000 0.000000
vn -1.000000 0.000000 0.000000
vn -1.000000 0.000000 0.000000
vn 0.000000 0.000000 1.000000
vn 0.000000 0.000000 1.000000
vn 0.000000 0.000000 1.000000
vn 0.000000 0.000000 1.000000
vn 1.000000 0.000000 0.000000
vn 1.000000 0.000000 0.000000
vn 1.000000 0.000000 0.000000
vn 1.000000 0.000000 0.000000
vn 0.000000 0.000000 -1.000000
vn 0.000000 0.000000 -1.000000
vn 0.000000 0.000000 -1.000000
vn 0.000000 0.000000 -1.000000
vn -1.000000 0.000000 0.000000
vn -1.000000 0.000000 0.000000
vn -1.000000 0.000000 0.000000
vn -1.000000 0.000000 0.000000
vn 0.000000 0.000000 1.000000
vn 0.000000 0.000000 1.000000
vn 0.000000 0.000000 1.000000
vn 0.000000 0.000000 1.000000
vn 1.000000 0.000000 0.000000
vn 1.000000 0.000000 0.000000
vn 1.000000 0.000000 0.000000
vn 1.000000 0.000000 0.000000
vn 0.000000 0.000000 -1.000000
vn 0.000000 0.000000 -1.000000
vn 0.000000 0.000000 -1.000000
vn 0.000000 0.000000 -1.000000
vn -1.000000 0.000000 0.000000
vn -1.000000 0.000000 0.000000
vn -1.000000 0.000000 0.000000
vn -1.000000 0.000000 0.000000
vn 0.000000 0.000000 1.000000
vn 0.000000 0.000000 1.000000
vn 1.000000 0.000000 0.000000
vn 1.000000 0.000000 0.000000
vn 0.000000 0.000000 -1.000000
vn 0.000000 0.000000 -1.000000
vn -1.000000 0.000000 0.000000
vn -1.000000 0.000000 0.000000
vn 0.000000 -1.000000 -0.000000
vn 0.000000 -1.000000 -0.000000
vn 0.000000 -1.000000 -0.000000
vn 0.000000 -1.000000 -0.000000
vn 0.000000 -1.000000 -0.000000
vn 0.000000 -1.000000 -0.000000
vn 0.000000 -1.000000 -0.000000
vn 0.000000 -1.000000 -0.000000
vn 0.000000 1.000000 0.000000
vn 0.000000 1.000000 0.000000
vn 0.000000 1.000000 0.000000
vn 0.000000 1.000000 0.000000
vn 0.000000 1.000000 -0.000000
vn 0.000000 1.000000 -0.000000
vn 0.000000 1.000000 -0.000000
vn 0.000000 1.000000 -0.000000
s off
g group1 pCube12
usemtl initialShadingGroup
f 41/87/81 42/88/82 43/58/83 44/57/84
f 44/57/85 43/58/86 45/60/87 46/59/88
f 46/59/89 45/60/90 47/89/91 48/90/92
f 49/61/93 50/62/94 51/64/95 52/63/96
f 42/88/97 47/91/98 45/66/99 43/58/100
f 48/92/101 41/87/102 44/57/103 46/68/104
f 52/55/105 51/56/106 53/93/107 54/94/108
f 51/56/109 50/65/110 55/95/111 53/93/112
f 56/96/113 55/97/114 50/62/115 49/61/116
f 49/67/117 52/55/118 54/94/119 56/98/120
s 1
f 29/69/121 30/70/122 34/76/123 33/75/124
s 2
f 30/70/125 31/72/126 35/78/127 34/76/128
s 3
f 36/80/129 35/77/130 31/71/131 32/74/132
s 4
f 32/73/133 29/69/134 33/75/135 36/79/136
s 1
f 33/75/124 34/76/123 38/82/137 37/81/138
s 2
f 34/76/128 35/78/127 39/84/139 38/82/140
s 3
f 40/86/141 39/83/142 35/77/130 36/80/129
s 4
f 36/79/136 33/75/135 37/81/143 40/85/144
s 5
f 37/81/145 38/82/146 42/88/147 41/87/148
f 39/83/149 40/86/150 48/90/151 47/89/152
f 38/82/146 39/84/149 47/91/152 42/88/147
f 40/85/150 37/81/145 41/87/148 48/92/151
s 6
f 30/70/153 29/69/154 54/94/155 53/93/156
f 31/72/157 30/70/153 53/93/156 55/95/158
f 32/74/159 31/71/157 55/97/158 56/96/160
f 29/69/154 32/73/159 56/98/160 54/94/155
g default
v -357.346644 -31.778338 13.688921
v -304.500259 -31.778338 13.688921
v -304.500259 -31.778338 -13.688921
v -357.346644 -31.778338 -13.688921
v -357.346644 -0.000034 13.688921
v -304.500259 -0.000034 13.688921
v -304.500259 -0.000032 -13.688921
v -357.346644 -0.000032 -13.688921
v -357.346644 31.778321 13.688921
v -304.500259 31.778321 13.688921
v -304.500259 31.778323 -13.688921
v -357.346644 31.778323 -13.688921
v -357.584427 31.778321 18.302063
v -304.262476 31.778321 18.302063
v -304.262476 68.692057 18.302063
v -357.584427 68.692057 18.302063
v -304.262476 68.692057 -18.302063
v -357.584427 68.692057 -18.302063
v -304.262476 31.778323 -18.302063
v -357.584427 31.778323 -18.302063
v -357.584427 -68.692057 -18.302063
v -304.262476 -68.692057 -18.302063
v -304.262476 -68.692057 18.302063
v -357.584427 -68.692057 18.302063
v -304.262476 -31.778338 18.302063
v -357.584427 -31.778338 18.302063
v -304.262476 -31.778338 -18.302063
v -357.584427 -31.778338 -18.302063
vt 0.223197 0.042784
vt 0.406735 0.042784
vt 0.223197 0.226322
vt 0.406735 0.226322
vt 0.223197 0.409860
vt 0.406735 0.409860
vt 0.223197 0.593398
vt 0.406735 0.593398
vt 0.223197 0.776936
vt 0.406735 0.776936
vt 0.590273 0.042784
vt 0.590273 0.226322
vt 0.039659 0.042784
vt 0.039659 0.226322
vt 0.223197 0.088668
vt 0.406735 0.088668
vt 0.406735 0.547513
vt 0.590273 0.088668
vt 0.039659 0.088668
vt 0.223197 0.547513
vt 0.223197 0.134553
vt 0.406735 0.134553
vt 0.406735 0.501629
vt 0.590273 0.134553
vt 0.039659 0.134553
vt 0.223197 0.501629
vt 0.223197 0.180437
vt 0.406735 0.180437
vt 0.406735 0.455744
vt 0.590273 0.180437
vt 0.039659 0.180437
vt 0.223197 0.455744
vt 0.223197 0.180437
vt 0.406735 0.180437
vt 0.406735 0.455744
vt 0.223197 0.455744
vt 0.590273 0.180437
vt 0.039659 0.180437
vt 0.406735 0.088668
vt 0.223197 0.088668
vt 0.590273 0.088668
vt 0.223197 0.547513
vt 0.406735 0.547513
vt 0.039659 0.088668
vn 0.000000 0.000000 1.000000
vn 0.000000 0.000000 1.000000
vn 0.000000 0.000000 1.000000
vn 0.000000 0.000000 1.000000
vn 0.000000 1.000000 0.000000
vn 0.000000 1.000000 0.000000
vn 0.000000 1.000000 0.000000
vn 0.000000 1.000000 0.000000
vn 0.000000 0.000000 -1.000000
vn 0.000000 0.000000 -1.000000
vn 0.000000 0.000000 -1.000000
vn 0.000000 0.000000 -1.000000
vn 0.000000 -1.000000 0.000000
vn 0.000000 -1.000000 0.000000
vn 0.000000 -1.000000 0.000000
vn 0.000000 -1.000000 0.000000
vn 1.000000 0.000000 0.000000
vn 1.000000 0.000000 0.000000
vn 1.000000 0.000000 0.000000
vn 1.000000 0.000000 0.000000
vn -1.000000 0.000000 0.000000
vn -1.000000 0.000000 0.000000
vn -1.000000 0.000000 0.000000
vn -1.000000 0.000000 0.000000
vn 0.000000 0.000000 1.000000
vn 0.000000 0.000000 1.000000
vn 0.000000 0.000000 1.000000
vn 0.000000 0.000000 1.000000
vn 1.000000 0.000000 0.000000
vn 1.000000 0.000000 0.000000
vn 1.000000 0.000000 0.000000
vn 1.000000 0.000000 0.000000
vn 0.000000 0.000000 -1.000000
vn 0.000000 0.000000 -1.000000
vn 0.000000 0.000000 -1.000000
vn 0.000000 0.000000 -1.000000
vn -1.000000 0.000000 0.000000
vn -1.000000 0.000000 0.000000
vn -1.000000 0.000000 0.000000
vn -1.000000 0.000000 0.000000
vn 0.000000 0.000000 1.000000
vn 0.000000 0.000000 1.000000
vn 0.000000 0.000000 1.000000
vn 0.000000 0.000000 1.000000
vn 1.000000 0.000000 0.000000
vn 1.000000 0.000000 0.000000
vn 1.000000 0.000000 0.000000
vn 1.000000 0.000000 0.000000
vn 0.000000 0.000000 -1.000000
vn 0.000000 0.000000 -1.000000
vn 0.000000 0.000000 -1.000000
vn 0.000000 0.000000 -1.000000
vn -1.000000 0.000000 0.000000
vn -1.000000 0.000000 0.000000
vn -1.000000 0.000000 0.000000
vn -1.000000 0.000000 0.000000
vn 0.000000 0.000000 1.000000
vn 0.000000 0.000000 1.000000
vn 1.000000 0.000000 0.000000
vn 1.000000 0.000000 0.000000
vn 0.000000 0.000000 -1.000000
vn 0.000000 0.000000 -1.000000
vn -1.000000 0.000000 0.000000
vn -1.000000 0.000000 0.000000
vn 0.000000 -1.000000 -0.000001
vn 0.000000 -1.000000 -0.000001
vn 0.000000 -1.000000 -0.000001
vn 0.000000 -1.000000 -0.000001
vn 0.000000 -1.000000 -0.000000
vn 0.000000 -1.000000 -0.000000
vn 0.000000 -1.000000 -0.000000
vn 0.000000 -1.000000 -0.000000
vn 0.000000 1.000000 0.000000
vn 0.000000 1.000000 0.000000
vn 0.000000 1.000000 0.000000
vn 0.000000 1.000000 0.000000
vn 0.000000 1.000000 0.000000
vn 0.000000 1.000000 0.000000
vn 0.000000 1.000000 0.000000
vn 0.000000 1.000000 0.000000
s off
g group1 pCube8
usemtl initialShadingGroup
f 69/131/161 70/132/162 71/102/163 72/101/164
f 72/101/165 71/102/166 73/104/167 74/103/168
f 74/103/169 73/104/170 75/133/171 76/134/172
f 77/105/173 78/106/174 79/108/175 80/107/176
f 70/132/177 75/135/178 73/110/179 71/102/180
f 76/136/181 69/131/182 72/101/183 74/112/184
f 80/99/185 79/100/186 81/137/187 82/138/188
f 79/100/189 78/109/190 83/139/191 81/137/192
f 84/140/193 83/141/194 78/106/195 77/105/196
f 77/111/197 80/99/198 82/138/199 84/142/200
s 1
f 57/113/201 58/114/202 62/120/203 61/119/204
s 2
f 58/114/205 59/116/206 63/122/207 62/120/208
s 3
f 64/124/209 63/121/210 59/115/211 60/118/212
s 4
f 60/117/213 57/113/214 61/119/215 64/123/216
s 1
f 61/119/204 62/120/203 66/126/217 65/125/218
s 2
f 62/120/208 63/122/207 67/128/219 66/126/220
s 3
f 68/130/221 67/127/222 63/121/210 64/124/209
s 4
f 64/123/216 61/119/215 65/125/223 68/129/224
s 5
f 65/125/225 66/126/226 70/132/227 69/131/228
f 67/127/229 68/130/230 76/134/231 75/133/232
f 66/126/226 67/128/229 75/135/232 70/132/227
f 68/129/230 65/125/225 69/131/228 76/136/231
s 6
f 58/114/233 57/113/234 82/138/235 81/137/236
f 59/116/237 58/114/233 81/137/236 83/139/238
f 60/118/239 59/115/237 83/141/238 84/140/240
f 57/113/234 60/117/239 84/142/240 82/138/235
