# This file uses centimeters as units for non-parametric coordinates.

mtllib ParedCircular.mtl
g default
v 2.791636 1.673705 -0.593380
v 2.607261 1.673705 -1.160827
v 2.308937 1.673705 -1.677540
v 1.909701 1.673705 -2.120937
v 1.427002 1.673705 -2.471638
v 0.881936 1.673705 -2.714317
v 0.298325 1.673705 -2.838368
v -0.298324 1.673705 -2.838368
v -0.881935 1.673705 -2.714318
v -1.427001 1.673705 -2.471638
v -1.909700 1.673705 -2.120937
v -2.308936 1.673705 -1.677540
v -2.607260 1.673705 -1.160827
v -2.791635 1.673705 -0.593381
v -2.854001 1.673705 -0.000000
v -2.791635 1.673705 0.593380
v -2.607260 1.673705 1.160827
v -2.308936 1.673705 1.677540
v -1.909700 1.673705 2.120936
v -1.427001 1.673705 2.471637
v -0.881935 1.673705 2.714316
v -0.298324 1.673705 2.838366
v 0.298324 1.673705 2.838366
v 0.881935 1.673705 2.714316
v 1.427000 1.673705 2.471637
v 1.909699 1.673705 2.120936
v 2.308935 1.673705 1.677539
v 2.607259 1.673705 1.160826
v 2.791633 1.673705 0.593380
v 2.854000 1.673705 0.000000
v 2.791636 0.000000 -0.593380
v 2.607261 0.000000 -1.160827
v 2.854000 0.000000 0.000000
v 2.791633 0.000000 0.593380
v 2.607259 0.000000 1.160826
v 2.308935 0.000000 1.677539
v 1.909699 0.000000 2.120936
v 1.427000 0.000000 2.471637
v 0.881935 0.000000 2.714316
v 0.298324 0.000000 2.838366
v -0.298324 0.000000 2.838366
v -0.881935 0.000000 2.714316
v -1.427001 0.000000 2.471637
v -1.909700 0.000000 2.120936
v -2.308936 0.000000 1.677540
v -2.607260 0.000000 1.160827
v -2.791635 0.000000 0.593380
v -2.854001 0.000000 -0.000000
v -2.791635 0.000000 -0.593381
v -2.607260 0.000000 -1.160827
v -2.308936 0.000000 -1.677540
v -1.909700 0.000000 -2.120937
v -1.427001 0.000000 -2.471638
v -0.881935 0.000000 -2.714318
v -0.298324 0.000000 -2.838368
v 0.298325 0.000000 -2.838368
v 0.881936 0.000000 -2.714317
v 1.427002 0.000000 -2.471638
v 1.909701 0.000000 -2.120937
v 2.308937 0.000000 -1.677540
vt 1.000000 0.061991
vt 0.980232 0.374579
vt 0.947557 0.372513
vt 0.967326 0.059924
vt 0.914883 0.370446
vt 0.934651 0.057858
vt 0.882208 0.368380
vt 0.901977 0.055792
vt 0.849534 0.366314
vt 0.869302 0.053725
vt 0.816860 0.364247
vt 0.836628 0.051659
vt 0.784185 0.362181
vt 0.803954 0.049592
vt 0.751511 0.360114
vt 0.771279 0.047526
vt 0.718837 0.358048
vt 0.738605 0.045460
vt 0.686162 0.355982
vt 0.705930 0.043393
vt 0.653488 0.353915
vt 0.673256 0.041327
vt 0.620813 0.351849
vt 0.640582 0.039261
vt 0.588139 0.349783
vt 0.607907 0.037194
vt 0.555464 0.347716
vt 0.575233 0.035128
vt 0.522790 0.345650
vt 0.542558 0.033062
vt 0.490116 0.343584
vt 0.509884 0.030995
vt 0.457441 0.341517
vt 0.477210 0.028929
vt 0.424767 0.339451
vt 0.444535 0.026863
vt 0.392093 0.337384
vt 0.411861 0.024796
vt 0.359418 0.335318
vt 0.379186 0.022730
vt 0.326744 0.333252
vt 0.346512 0.020663
vt 0.294069 0.331185
vt 0.313838 0.018597
vt 0.261395 0.329119
vt 0.281163 0.016531
vt 0.228721 0.327053
vt 0.248489 0.014464
vt 0.196046 0.324986
vt 0.215815 0.012398
vt 0.163372 0.322920
vt 0.183140 0.010332
vt 0.130697 0.320854
vt 0.150466 0.008265
vt 0.098023 0.318787
vt 0.117791 0.006199
vt 0.065349 0.316721
vt 0.085117 0.004133
vt 0.032674 0.314655
vt 0.052443 0.002066
vt 0.000000 0.312588
vt 0.019768 0.000000
vn -0.978148 0.000000 0.207909
vn -0.978148 0.000000 0.207909
vn -0.913545 0.000000 0.406737
vn -0.913545 0.000000 0.406737
vn -0.809017 0.000000 0.587785
vn -0.809017 0.000000 0.587785
vn -0.669131 0.000000 0.743145
vn -0.669131 0.000000 0.743145
vn -0.500000 0.000000 0.866025
vn -0.500000 0.000000 0.866025
vn -0.309017 0.000000 0.951056
vn -0.309017 0.000000 0.951056
vn -0.104529 0.000000 0.994522
vn -0.104529 0.000000 0.994522
vn 0.104528 0.000000 0.994522
vn 0.104528 0.000000 0.994522
vn 0.309017 0.000000 0.951057
vn 0.309017 0.000000 0.951057
vn 0.500000 0.000000 0.866025
vn 0.500000 0.000000 0.866025
vn 0.669131 0.000000 0.743145
vn 0.669131 0.000000 0.743145
vn 0.809017 0.000000 0.587785
vn 0.809017 0.000000 0.587785
vn 0.913545 0.000000 0.406737
vn 0.913545 0.000000 0.406737
vn 0.978148 0.000000 0.207912
vn 0.978148 0.000000 0.207912
vn 1.000000 0.000000 -0.000000
vn 1.000000 0.000000 -0.000000
vn 0.978148 0.000000 -0.207912
vn 0.978148 0.000000 -0.207912
vn 0.913545 0.000000 -0.406737
vn 0.913545 0.000000 -0.406737
vn 0.809017 0.000000 -0.587785
vn 0.809017 0.000000 -0.587785
vn 0.669131 0.000000 -0.743145
vn 0.669131 0.000000 -0.743145
vn 0.500000 0.000000 -0.866026
vn 0.500000 0.000000 -0.866026
vn 0.309017 0.000000 -0.951057
vn 0.309017 0.000000 -0.951057
vn 0.104528 0.000000 -0.994522
vn 0.104528 0.000000 -0.994522
vn -0.104529 0.000000 -0.994522
vn -0.104529 0.000000 -0.994522
vn -0.309017 0.000000 -0.951057
vn -0.309017 0.000000 -0.951057
vn -0.500000 0.000000 -0.866025
vn -0.500000 0.000000 -0.866025
vn -0.669131 0.000000 -0.743145
vn -0.669131 0.000000 -0.743145
vn -0.809017 0.000000 -0.587785
vn -0.809017 0.000000 -0.587785
vn -0.913546 0.000000 -0.406736
vn -0.913546 0.000000 -0.406736
vn -0.978148 0.000000 -0.207911
vn -0.978148 0.000000 -0.207911
vn -1.000000 0.000000 -0.000002
vn -1.000000 0.000000 -0.000002
s 1
g polySurface3 ParedCircular
usemtl initialShadingGroup
f 31/1/1 1/2/2 2/3/3 32/4/4
f 32/4/4 2/3/3 3/5/5 60/6/6
f 60/6/6 3/5/5 4/7/7 59/8/8
f 59/8/8 4/7/7 5/9/9 58/10/10
f 58/10/10 5/9/9 6/11/11 57/12/12
f 57/12/12 6/11/11 7/13/13 56/14/14
f 56/14/14 7/13/13 8/15/15 55/16/16
f 55/16/16 8/15/15 9/17/17 54/18/18
f 54/18/18 9/17/17 10/19/19 53/20/20
f 53/20/20 10/19/19 11/21/21 52/22/22
f 52/22/22 11/21/21 12/23/23 51/24/24
f 51/24/24 12/23/23 13/25/25 50/26/26
f 50/26/26 13/25/25 14/27/27 49/28/28
f 49/28/28 14/27/27 15/29/29 48/30/30
f 48/30/30 15/29/29 16/31/31 47/32/32
f 47/32/32 16/31/31 17/33/33 46/34/34
f 46/34/34 17/33/33 18/35/35 45/36/36
f 45/36/36 18/35/35 19/37/37 44/38/38
f 44/38/38 19/37/37 20/39/39 43/40/40
f 43/40/40 20/39/39 21/41/41 42/42/42
f 42/42/42 21/41/41 22/43/43 41/44/44
f 41/44/44 22/43/43 23/45/45 40/46/46
f 40/46/46 23/45/45 24/47/47 39/48/48
f 39/48/48 24/47/47 25/49/49 38/50/50
f 38/50/50 25/49/49 26/51/51 37/52/52
f 37/52/52 26/51/51 27/53/53 36/54/54
f 36/54/54 27/53/53 28/55/55 35/56/56
f 35/56/56 28/55/55 29/57/57 34/58/58
f 34/58/58 29/57/57 30/59/59 33/60/60
f 33/60/60 30/59/59 1/61/2 31/62/1
