# This file uses centimeters as units for non-parametric coordinates.

mtllib SueloOctogonal.mtl
g default
v 2.017894 0.000000 -2.017894
v 0.000000 0.000000 -2.853734
v -2.017894 0.000000 -2.017894
v -2.853734 0.000000 0.000000
v -2.017894 0.000000 2.017894
v 0.000000 0.000000 2.853734
v 2.017895 0.000000 2.017895
v 2.853734 0.000000 0.000000
v 0.000000 0.000000 0.000000
v 0.000000 -0.200000 0.000000
v 0.000000 -0.200000 -2.853734
v 2.017894 -0.200000 -2.017894
v -2.017894 -0.200000 -2.017894
v -2.853734 -0.200000 0.000000
v -2.017894 -0.200000 2.017894
v 0.000000 -0.200000 2.853734
v 2.017895 -0.200000 2.017895
v 2.853734 -0.200000 0.000000
vt 0.149963 0.340640
vt 0.071625 0.625689
vt 0.398371 0.374521
vt 0.198762 0.526214
vt 0.364489 0.622929
vt 0.550064 0.574129
vt 0.646778 0.408402
vt 0.597979 0.222828
vt 0.432252 0.126113
vt 0.040133 0.748622
vt 0.762994 0.755278
vt 0.060200 0.623852
vt 0.020067 0.873392
vt 0.000000 0.998163
vt 0.140466 0.124770
vt 0.120399 0.249541
vt 0.100333 0.374311
vt 0.080266 0.499081
vt 0.091691 0.500919
vt 0.246677 0.174912
vt 0.111758 0.376148
vt 0.131825 0.251378
vt 0.151891 0.126608
vt 0.011425 1.000000
vt 0.171958 0.001837
vt 0.031492 0.875230
vt 0.770947 0.538186
vt 0.160533 -0.000000
vt 0.051558 0.750459
vt 0.755040 0.972371
vt 0.603862 0.903162
vt 0.910877 0.914410
vt 0.980086 0.763232
vt 0.922125 0.607395
vt 0.615110 0.596147
vt 0.545901 0.747325
vn 0.000000 -1.000000 0.000000
vn 0.000000 -1.000000 0.000000
vn 0.000000 -1.000000 0.000000
vn 0.000000 -1.000000 0.000000
vn 0.000000 -1.000000 0.000000
vn 0.000000 -1.000000 -0.000000
vn 0.000000 -1.000000 0.000000
vn 0.000000 -1.000000 0.000000
vn 0.000000 -1.000000 0.000000
vn 0.000000 1.000000 0.000000
vn 0.000000 1.000000 0.000000
vn 0.000000 1.000000 0.000000
vn 0.000000 1.000000 0.000000
vn 0.000000 1.000000 0.000000
vn 0.000000 1.000000 0.000000
vn 0.000000 1.000000 0.000000
vn 0.000000 1.000000 0.000000
vn 0.000000 1.000000 0.000000
vn 0.382683 0.000000 -0.923880
vn 0.382683 0.000000 -0.923880
vn 0.382683 0.000000 -0.923880
vn 0.382683 0.000000 -0.923880
vn -0.382683 0.000000 -0.923880
vn -0.382683 0.000000 -0.923880
vn -0.382683 0.000000 -0.923880
vn -0.382683 0.000000 -0.923880
vn -0.923880 0.000000 -0.382683
vn -0.923880 0.000000 -0.382683
vn -0.923880 0.000000 -0.382683
vn -0.923880 0.000000 -0.382683
vn -0.923880 0.000000 0.382683
vn -0.923880 0.000000 0.382683
vn -0.923880 0.000000 0.382683
vn -0.923880 0.000000 0.382683
vn -0.382683 0.000000 0.923880
vn -0.382683 0.000000 0.923880
vn -0.382683 0.000000 0.923880
vn -0.382683 0.000000 0.923880
vn 0.382683 0.000000 0.923880
vn 0.382683 0.000000 0.923880
vn 0.382683 0.000000 0.923880
vn 0.382683 0.000000 0.923880
vn 0.923880 0.000000 0.382683
vn 0.923880 0.000000 0.382683
vn 0.923880 0.000000 0.382683
vn 0.923880 0.000000 0.382683
vn 0.923879 0.000000 -0.382684
vn 0.923879 0.000000 -0.382684
vn 0.923879 0.000000 -0.382684
vn 0.923879 0.000000 -0.382684
s 1
g SueloOctogonal
usemtl initialShadingGroup
f 11/1/1 12/20/2 10/3/3
f 13/4/4 11/1/1 10/3/3
f 14/5/5 13/4/4 10/3/3
f 15/6/6 14/5/5 10/3/3
f 16/7/7 15/6/6 10/3/3
f 17/8/8 16/7/7 10/3/3
f 18/9/9 17/8/8 10/3/3
f 12/20/2 18/9/9 10/3/3
s 2
f 2/36/10 9/11/11 1/31/12
f 3/35/13 9/11/11 2/36/10
f 4/27/14 9/11/11 3/35/13
f 5/34/15 9/11/11 4/27/14
f 6/33/16 9/11/11 5/34/15
f 7/32/17 9/11/11 6/33/16
f 8/30/18 9/11/11 7/32/17
f 1/31/12 9/11/11 8/30/18
s off
f 1/12/19 12/2/20 11/29/21 2/10/22
f 2/10/23 11/29/24 13/26/25 3/13/26
f 3/13/27 13/26/28 14/24/29 4/14/30
f 4/28/31 14/25/32 15/23/33 5/15/34
f 5/15/35 15/23/36 16/22/37 6/16/38
f 6/16/39 16/22/40 17/21/41 7/17/42
f 7/17/43 17/21/44 18/19/45 8/18/46
f 8/18/47 18/19/48 12/2/49 1/12/50
