# This file uses centimeters as units for non-parametric coordinates.

mtllib mesa2.mtl
g default
v 0.084123 0.149429 -0.084123
v -0.000000 0.149429 -0.118969
v -0.084123 0.149429 -0.084124
v -0.118969 0.149429 -0.000000
v -0.084123 0.149429 0.084123
v -0.000000 0.149429 0.118968
v 0.084123 0.149429 0.084123
v 0.118969 0.149429 -0.000000
v 0.155440 0.167577 -0.155440
v 0.000000 0.167577 -0.219825
v -0.155440 0.167577 -0.155440
v -0.219825 0.167577 -0.000000
v -0.155440 0.167577 0.155440
v 0.000000 0.167577 0.219825
v 0.155440 0.167577 0.155440
v 0.219825 0.167577 -0.000000
v 0.203092 0.194737 -0.203092
v -0.000000 0.194737 -0.287215
v -0.203092 0.194737 -0.203092
v -0.287215 0.194737 -0.000000
v -0.203092 0.194737 0.203092
v -0.000000 0.194737 0.287215
v 0.203092 0.194737 0.203092
v 0.287215 0.194737 -0.000000
v 0.219825 0.226775 -0.219825
v -0.000000 0.226775 -0.310880
v -0.219825 0.226775 -0.219825
v -0.310880 0.226775 -0.000000
v -0.219825 0.226775 0.219825
v 0.000000 0.226775 0.310880
v 0.219825 0.226775 0.219825
v 0.310880 0.226775 -0.000000
v -0.000000 0.143056 -0.000000
v 0.090602 0.136069 -0.090602
v 0.000000 0.136069 -0.128130
v 0.000000 0.156030 -0.239065
v 0.169044 0.156030 -0.169044
v -0.090602 0.136069 -0.090602
v -0.169044 0.156030 -0.169044
v -0.128130 0.136069 -0.000000
v -0.239065 0.156030 -0.000000
v -0.090602 0.136069 0.090602
v -0.169044 0.156030 0.169044
v -0.000000 0.136069 0.128130
v 0.000000 0.156030 0.239065
v 0.090602 0.136069 0.090602
v 0.169044 0.156030 0.169044
v 0.128130 0.136069 -0.000000
v 0.239065 0.156030 -0.000000
v -0.000000 0.187424 -0.316959
v 0.224124 0.187424 -0.224124
v -0.224124 0.187424 -0.224124
v -0.316959 0.187424 -0.000000
v -0.224124 0.187424 0.224124
v -0.000000 0.187424 0.316959
v 0.224124 0.187424 0.224124
v 0.316959 0.187424 0.000000
v -0.000000 0.222196 -0.342643
v 0.242285 0.222196 -0.242285
v -0.242285 0.222196 -0.242285
v -0.342643 0.222196 -0.000000
v -0.242285 0.222196 0.242285
v -0.000000 0.222196 0.342643
v 0.242285 0.222196 0.242285
v 0.342643 0.222196 -0.000000
v 0.000000 0.129206 -0.000000
vt 0.000000 0.125000
vt 0.125000 0.125000
vt 0.250000 0.125000
vt 0.375000 0.125000
vt 0.500000 0.125000
vt 0.625000 0.125000
vt 0.750000 0.125000
vt 0.875000 0.125000
vt 1.000000 0.125000
vt 0.000000 0.250000
vt 0.125000 0.250000
vt 0.250000 0.250000
vt 0.375000 0.250000
vt 0.500000 0.250000
vt 0.625000 0.250000
vt 0.750000 0.250000
vt 0.875000 0.250000
vt 1.000000 0.250000
vt 0.000000 0.375000
vt 0.125000 0.375000
vt 0.250000 0.375000
vt 0.375000 0.375000
vt 0.500000 0.375000
vt 0.625000 0.375000
vt 0.750000 0.375000
vt 0.875000 0.375000
vt 1.000000 0.375000
vt 0.000000 0.500000
vt 0.125000 0.500000
vt 0.250000 0.500000
vt 0.375000 0.500000
vt 0.500000 0.500000
vt 0.625000 0.500000
vt 0.750000 0.500000
vt 0.875000 0.500000
vt 1.000000 0.500000
vt 0.062500 0.000000
vt 0.187500 0.000000
vt 0.312500 0.000000
vt 0.437500 0.000000
vt 0.562500 0.000000
vt 0.687500 0.000000
vt 0.812500 0.000000
vt 0.937500 0.000000
vt 0.000000 0.125000
vt 0.125000 0.125000
vt 0.125000 0.250000
vt 0.000000 0.250000
vt 0.250000 0.125000
vt 0.250000 0.250000
vt 0.375000 0.125000
vt 0.375000 0.250000
vt 0.500000 0.125000
vt 0.500000 0.250000
vt 0.625000 0.125000
vt 0.625000 0.250000
vt 0.750000 0.125000
vt 0.750000 0.250000
vt 0.875000 0.125000
vt 0.875000 0.250000
vt 1.000000 0.125000
vt 1.000000 0.250000
vt 0.125000 0.375000
vt 0.000000 0.375000
vt 0.250000 0.375000
vt 0.375000 0.375000
vt 0.500000 0.375000
vt 0.625000 0.375000
vt 0.750000 0.375000
vt 0.875000 0.375000
vt 1.000000 0.375000
vt 0.125000 0.500000
vt 0.000000 0.500000
vt 0.250000 0.500000
vt 0.375000 0.500000
vt 0.500000 0.500000
vt 0.625000 0.500000
vt 0.750000 0.500000
vt 0.875000 0.500000
vt 1.000000 0.500000
vt 0.062500 0.000000
vt 0.187500 0.000000
vt 0.312500 0.000000
vt 0.437500 0.000000
vt 0.562500 0.000000
vt 0.687500 0.000000
vt 0.812500 0.000000
vt 0.937500 0.000000
vt 0.125000 0.500000
vt 0.000000 0.500000
vt 0.250000 0.500000
vt 0.375000 0.500000
vt 0.500000 0.500000
vt 0.625000 0.500000
vt 0.750000 0.500000
vt 0.875000 0.500000
vt 1.000000 0.500000
vn 0.073158 -0.981557 -0.176618
vn 0.073158 -0.981557 -0.176618
vn 0.073158 -0.981557 -0.176618
vn 0.073158 -0.981557 -0.176618
vn -0.073158 -0.981557 -0.176618
vn -0.073158 -0.981557 -0.176618
vn -0.073158 -0.981557 -0.176618
vn -0.073158 -0.981557 -0.176618
vn -0.176618 -0.981557 -0.073158
vn -0.176618 -0.981557 -0.073158
vn -0.176618 -0.981557 -0.073158
vn -0.176618 -0.981557 -0.073158
vn -0.176618 -0.981557 0.073158
vn -0.176618 -0.981557 0.073158
vn -0.176618 -0.981557 0.073158
vn -0.176618 -0.981557 0.073158
vn -0.073158 -0.981557 0.176618
vn -0.073158 -0.981557 0.176618
vn -0.073158 -0.981557 0.176618
vn -0.073158 -0.981557 0.176618
vn 0.073158 -0.981557 0.176618
vn 0.073158 -0.981557 0.176618
vn 0.073158 -0.981557 0.176618
vn 0.073158 -0.981557 0.176618
vn 0.176618 -0.981557 0.073158
vn 0.176618 -0.981557 0.073158
vn 0.176618 -0.981557 0.073158
vn 0.176618 -0.981557 0.073158
vn 0.176618 -0.981557 -0.073158
vn 0.176618 -0.981557 -0.073158
vn 0.176618 -0.981557 -0.073158
vn 0.176618 -0.981557 -0.073158
vn 0.153015 -0.916582 -0.369410
vn 0.153015 -0.916582 -0.369410
vn 0.153015 -0.916582 -0.369410
vn 0.153015 -0.916582 -0.369410
vn -0.153014 -0.916583 -0.369409
vn -0.153014 -0.916583 -0.369409
vn -0.153014 -0.916583 -0.369409
vn -0.153014 -0.916583 -0.369409
vn -0.369409 -0.916582 -0.153014
vn -0.369409 -0.916583 -0.153014
vn -0.369409 -0.916583 -0.153014
vn -0.369409 -0.916583 -0.153014
vn -0.369410 -0.916582 0.153014
vn -0.369410 -0.916582 0.153014
vn -0.369410 -0.916582 0.153014
vn -0.369409 -0.916582 0.153014
vn -0.153014 -0.916582 0.369410
vn -0.153014 -0.916582 0.369410
vn -0.153014 -0.916582 0.369410
vn -0.153014 -0.916582 0.369410
vn 0.153015 -0.916582 0.369410
vn 0.153015 -0.916582 0.369410
vn 0.153014 -0.916582 0.369410
vn 0.153015 -0.916582 0.369410
vn 0.369409 -0.916583 0.153014
vn 0.369409 -0.916583 0.153014
vn 0.369409 -0.916582 0.153014
vn 0.369409 -0.916583 0.153014
vn 0.369410 -0.916582 -0.153015
vn 0.369410 -0.916582 -0.153015
vn 0.369410 -0.916582 -0.153015
vn 0.369410 -0.916582 -0.153015
vn 0.316095 -0.563674 -0.763122
vn 0.316095 -0.563674 -0.763122
vn 0.316095 -0.563674 -0.763122
vn 0.316095 -0.563674 -0.763122
vn -0.316096 -0.563673 -0.763123
vn -0.316096 -0.563673 -0.763122
vn -0.316096 -0.563673 -0.763123
vn -0.316096 -0.563673 -0.763123
vn -0.763122 -0.563673 -0.316096
vn -0.763122 -0.563673 -0.316096
vn -0.763122 -0.563673 -0.316096
vn -0.763122 -0.563673 -0.316096
vn -0.763122 -0.563674 0.316096
vn -0.763122 -0.563674 0.316096
vn -0.763122 -0.563674 0.316096
vn -0.763122 -0.563674 0.316096
vn -0.316096 -0.563674 0.763122
vn -0.316096 -0.563674 0.763122
vn -0.316096 -0.563674 0.763122
vn -0.316096 -0.563674 0.763122
vn 0.316095 -0.563674 0.763122
vn 0.316095 -0.563674 0.763122
vn 0.316095 -0.563674 0.763122
vn 0.316095 -0.563674 0.763122
vn 0.763122 -0.563674 0.316095
vn 0.763122 -0.563674 0.316095
vn 0.763122 -0.563674 0.316095
vn 0.763122 -0.563674 0.316095
vn 0.763122 -0.563674 -0.316095
vn 0.763122 -0.563674 -0.316095
vn 0.763122 -0.563674 -0.316096
vn 0.763122 -0.563674 -0.316096
vn 0.022151 -0.998323 -0.053477
vn 0.022151 -0.998323 -0.053477
vn 0.022151 -0.998323 -0.053477
vn -0.022151 -0.998323 -0.053477
vn -0.022151 -0.998323 -0.053477
vn -0.022151 -0.998323 -0.053477
vn -0.053477 -0.998323 -0.022151
vn -0.053477 -0.998323 -0.022151
vn -0.053477 -0.998323 -0.022151
vn -0.053477 -0.998323 0.022151
vn -0.053477 -0.998323 0.022151
vn -0.053477 -0.998323 0.022151
vn -0.022151 -0.998323 0.053477
vn -0.022151 -0.998323 0.053477
vn -0.022151 -0.998323 0.053477
vn 0.022151 -0.998323 0.053477
vn 0.022151 -0.998323 0.053477
vn 0.022151 -0.998323 0.053477
vn 0.053477 -0.998323 0.022151
vn 0.053477 -0.998323 0.022151
vn 0.053477 -0.998323 0.022151
vn 0.053477 -0.998323 -0.022151
vn 0.053477 -0.998323 -0.022151
vn 0.053477 -0.998323 -0.022151
vn -0.073158 0.981557 0.176619
vn -0.073158 0.981557 0.176619
vn -0.073158 0.981557 0.176619
vn -0.073158 0.981557 0.176619
vn 0.073158 0.981557 0.176619
vn 0.073158 0.981557 0.176619
vn 0.073158 0.981557 0.176619
vn 0.073158 0.981557 0.176619
vn 0.176619 0.981557 0.073158
vn 0.176619 0.981557 0.073158
vn 0.176619 0.981557 0.073158
vn 0.176619 0.981557 0.073158
vn 0.176619 0.981557 -0.073158
vn 0.176619 0.981557 -0.073158
vn 0.176619 0.981557 -0.073158
vn 0.176619 0.981557 -0.073158
vn 0.073158 0.981557 -0.176619
vn 0.073158 0.981557 -0.176619
vn 0.073158 0.981557 -0.176619
vn 0.073158 0.981557 -0.176619
vn -0.073158 0.981557 -0.176619
vn -0.073158 0.981557 -0.176619
vn -0.073158 0.981557 -0.176619
vn -0.073158 0.981557 -0.176619
vn -0.176619 0.981557 -0.073158
vn -0.176619 0.981557 -0.073158
vn -0.176619 0.981557 -0.073158
vn -0.176619 0.981557 -0.073158
vn -0.176619 0.981557 0.073158
vn -0.176619 0.981557 0.073158
vn -0.176619 0.981557 0.073158
vn -0.176619 0.981557 0.073158
vn -0.153014 0.916583 0.369409
vn -0.153014 0.916583 0.369409
vn -0.153014 0.916583 0.369409
vn -0.153014 0.916583 0.369409
vn 0.153014 0.916583 0.369409
vn 0.153014 0.916583 0.369409
vn 0.153014 0.916583 0.369409
vn 0.153014 0.916583 0.369409
vn 0.369409 0.916583 0.153014
vn 0.369409 0.916583 0.153014
vn 0.369409 0.916583 0.153014
vn 0.369409 0.916583 0.153014
vn 0.369409 0.916583 -0.153014
vn 0.369409 0.916583 -0.153014
vn 0.369409 0.916583 -0.153014
vn 0.369409 0.916583 -0.153014
vn 0.153014 0.916583 -0.369409
vn 0.153014 0.916583 -0.369409
vn 0.153014 0.916583 -0.369409
vn 0.153014 0.916583 -0.369409
vn -0.153014 0.916583 -0.369409
vn -0.153014 0.916583 -0.369409
vn -0.153014 0.916583 -0.369409
vn -0.153014 0.916583 -0.369409
vn -0.369409 0.916583 -0.153014
vn -0.369409 0.916583 -0.153014
vn -0.369409 0.916583 -0.153014
vn -0.369409 0.916583 -0.153014
vn -0.369409 0.916583 0.153014
vn -0.369409 0.916583 0.153014
vn -0.369409 0.916583 0.153014
vn -0.369409 0.916583 0.153014
vn -0.316096 0.563673 0.763123
vn -0.316096 0.563673 0.763123
vn -0.316096 0.563673 0.763123
vn -0.316096 0.563673 0.763123
vn 0.316096 0.563673 0.763123
vn 0.316096 0.563673 0.763123
vn 0.316096 0.563673 0.763123
vn 0.316096 0.563673 0.763123
vn 0.763122 0.563674 0.316096
vn 0.763122 0.563673 0.316096
vn 0.763122 0.563674 0.316096
vn 0.763122 0.563674 0.316096
vn 0.763123 0.563673 -0.316096
vn 0.763123 0.563673 -0.316096
vn 0.763123 0.563673 -0.316096
vn 0.763123 0.563673 -0.316096
vn 0.316096 0.563673 -0.763122
vn 0.316096 0.563673 -0.763123
vn 0.316096 0.563673 -0.763123
vn 0.316096 0.563673 -0.763123
vn -0.316096 0.563673 -0.763123
vn -0.316096 0.563673 -0.763123
vn -0.316096 0.563673 -0.763123
vn -0.316096 0.563673 -0.763123
vn -0.763123 0.563673 -0.316096
vn -0.763123 0.563673 -0.316096
vn -0.763123 0.563673 -0.316096
vn -0.763123 0.563673 -0.316096
vn -0.763122 0.563674 0.316096
vn -0.763122 0.563674 0.316096
vn -0.763122 0.563674 0.316096
vn -0.763122 0.563674 0.316096
vn -0.022151 0.998324 0.053476
vn -0.022151 0.998324 0.053476
vn -0.022151 0.998323 0.053476
vn 0.022151 0.998324 0.053476
vn 0.022151 0.998324 0.053476
vn 0.022151 0.998323 0.053476
vn 0.053476 0.998323 0.022151
vn 0.053476 0.998324 0.022151
vn 0.053476 0.998324 0.022151
vn 0.053476 0.998324 -0.022151
vn 0.053476 0.998324 -0.022151
vn 0.053476 0.998323 -0.022151
vn 0.022151 0.998323 -0.053477
vn 0.022151 0.998324 -0.053477
vn 0.022151 0.998323 -0.053477
vn -0.022151 0.998324 -0.053476
vn -0.022151 0.998324 -0.053476
vn -0.022151 0.998324 -0.053476
vn -0.053476 0.998324 -0.022151
vn -0.053476 0.998324 -0.022151
vn -0.053476 0.998323 -0.022151
vn -0.053476 0.998323 0.022151
vn -0.053476 0.998324 0.022151
vn -0.053476 0.998324 0.022151
vn -0.000000 0.989772 -0.142656
vn 0.100873 0.989772 -0.100873
vn 0.100873 0.989772 -0.100873
vn -0.000000 0.989772 -0.142656
vn -0.100873 0.989772 -0.100873
vn -0.100873 0.989772 -0.100873
vn -0.142656 0.989772 -0.000000
vn -0.142656 0.989772 0.000000
vn -0.100873 0.989772 0.100873
vn -0.100873 0.989772 0.100873
vn 0.000000 0.989772 0.142656
vn -0.000000 0.989772 0.142656
vn 0.100873 0.989772 0.100873
vn 0.100873 0.989772 0.100873
vn 0.142656 0.989772 0.000000
vn 0.142656 0.989772 0.000000
s off
g pSphere6 group1
usemtl initialShadingGroup
f 34/1/1 35/2/2 36/11/3 37/10/4
f 35/2/5 38/3/6 39/12/7 36/11/8
f 38/3/9 40/4/10 41/13/11 39/12/12
f 40/4/13 42/5/14 43/14/15 41/13/16
f 42/5/17 44/6/18 45/15/19 43/14/20
f 44/6/21 46/7/22 47/16/23 45/15/24
f 46/7/25 48/8/26 49/17/27 47/16/28
f 48/8/29 34/9/30 37/18/31 49/17/32
f 37/10/33 36/11/34 50/20/35 51/19/36
f 36/11/37 39/12/38 52/21/39 50/20/40
f 39/12/41 41/13/42 53/22/43 52/21/44
f 41/13/45 43/14/46 54/23/47 53/22/48
f 43/14/49 45/15/50 55/24/51 54/23/52
f 45/15/53 47/16/54 56/25/55 55/24/56
f 47/16/57 49/17/58 57/26/59 56/25/60
f 49/17/61 37/18/62 51/27/63 57/26/64
f 51/19/65 50/20/66 58/89/67 59/90/68
f 50/20/69 52/21/70 60/91/71 58/89/72
f 52/21/73 53/22/74 61/92/75 60/91/76
f 53/22/77 54/23/78 62/93/79 61/92/80
f 54/23/81 55/24/82 63/94/83 62/93/84
f 55/24/85 56/25/86 64/95/87 63/94/88
f 56/25/89 57/26/90 65/96/91 64/95/92
f 57/26/93 51/27/94 59/97/95 65/96/96
f 35/2/97 34/1/98 66/37/99
f 38/3/100 35/2/101 66/38/102
f 40/4/103 38/3/104 66/39/105
f 42/5/106 40/4/107 66/40/108
f 44/6/109 42/5/110 66/41/111
f 46/7/112 44/6/113 66/42/114
f 48/8/115 46/7/116 66/43/117
f 34/9/118 48/8/119 66/44/120
f 1/45/121 9/48/122 10/47/123 2/46/124
f 2/46/125 10/47/126 11/50/127 3/49/128
f 3/49/129 11/50/130 12/52/131 4/51/132
f 4/51/133 12/52/134 13/54/135 5/53/136
f 5/53/137 13/54/138 14/56/139 6/55/140
f 6/55/141 14/56/142 15/58/143 7/57/144
f 7/57/145 15/58/146 16/60/147 8/59/148
f 8/59/149 16/60/150 9/62/151 1/61/152
f 9/48/153 17/64/154 18/63/155 10/47/156
f 10/47/157 18/63/158 19/65/159 11/50/160
f 11/50/161 19/65/162 20/66/163 12/52/164
f 12/52/165 20/66/166 21/67/167 13/54/168
f 13/54/169 21/67/170 22/68/171 14/56/172
f 14/56/173 22/68/174 23/69/175 15/58/176
f 15/58/177 23/69/178 24/70/179 16/60/180
f 16/60/181 24/70/182 17/71/183 9/62/184
f 17/64/185 25/73/186 26/72/187 18/63/188
f 18/63/189 26/72/190 27/74/191 19/65/192
f 19/65/193 27/74/194 28/75/195 20/66/196
f 20/66/197 28/75/198 29/76/199 21/67/200
f 21/67/201 29/76/202 30/77/203 22/68/204
f 22/68/205 30/77/206 31/78/207 23/69/208
f 23/69/209 31/78/210 32/79/211 24/70/212
f 24/70/213 32/79/214 25/80/215 17/71/216
f 2/46/217 33/81/218 1/45/219
f 3/49/220 33/82/221 2/46/222
f 4/51/223 33/83/224 3/49/225
f 5/53/226 33/84/227 4/51/228
f 6/55/229 33/85/230 5/53/231
f 7/57/232 33/86/233 6/55/234
f 8/59/235 33/87/236 7/57/237
f 1/61/238 33/88/239 8/59/240
s 1
f 26/29/241 25/28/242 59/90/243 58/89/244
f 27/30/245 26/29/241 58/89/244 60/91/246
f 28/31/247 27/30/245 60/91/246 61/92/248
f 29/32/249 28/31/247 61/92/248 62/93/250
f 30/33/251 29/32/249 62/93/250 63/94/252
f 31/34/253 30/33/251 63/94/252 64/95/254
f 32/35/255 31/34/253 64/95/254 65/96/256
f 25/36/242 32/35/255 65/96/256 59/97/243
